<svg version="1.1" x="0px" y="0px" width="621" height="205" xmlns="http://www.w3.org/2000/svg" xmlns:xlink="http://www.w3.org/1999/xlink" xmlns:a="http://ns.adobe.com/AdobeSVGViewerExtensions/3.0/" xml:space="preserve"><g transform="translate(20.90718701143 20.52722930908) scale(2.2688286175932 2.2688281099545) rotate(0 55.094512939455 36.130004882812)"><path d="M73.913 0l-11.74 18-4.81 7.391-1.961-5.49L48.313 0h-21.94l-4.971 33.7c-22 11.79-24.129 21.74-19.209 28.04.4.5.83.98 1.31 1.43 2.72 2.601 6.7 4.421 10.71 5.271 0 0-4.58-3.43-5.14-9-.13-1.26-.06-2.63.329-4.1.99-3.761 3.99-8.141 10.711-12.9 4.359-3.08 10.3-6.32 18.26-9.641 22-9.18 39.971-13.579 52.73-15.669l.539-3.641L93.633 0h-19.72z" fill="#2f70bc"></path><path d="M18.423 53.9l-2.71 18.36h19.891l4.24-28.681 1.029-6.93c-8.609 3.8-15.75 7.78-21.62 11.58l-.83 5.671zM90.264 22.83c-6.781.34-15.601 2.011-26.91 5.48-8.371 2.57-15.801 5.38-22.381 8.29l2.24 5.6 7.99 19.95 17.52-25.71-5.3 35.82h19.55l6.19-41.94c19.78.58 16.13 16.26 16.13 16.26 7.391-9.46 9.23-25.01-15.029-23.75z" fill="#606060"></path></g>
<g transform="translate(305.21875 153.73875054056)  scale(0.77120929700843 0.77120929700843)"><text dominant-baseline="auto" alignment-baseline="auto" font-family="Androgyne" font-size="34px" fill="#606060" letter-spacing="0" xml:space="preserve">RENEWED FOR YOU</text></g>
<g transform="translate(289.90625 96.897952101126)  scale(0.75465275361783 0.75465275361783)"><text dominant-baseline="auto" alignment-baseline="auto" font-family="ADAM.CG PRO" font-size="62px" fill="#2f70bc" letter-spacing="0" xml:space="preserve">MILLERS TECH</text></g>
</svg>